<mxfile host="app.diagrams.net" modified="2020-07-19T03:42:11.965Z" agent="5.0 (Macintosh; Intel Mac OS X 10_15_5) AppleWebKit/537.36 (KHTML, like Gecko) Chrome/83.0.4103.116 Safari/537.36" etag="1Z5HC-a_s06eqZhf7wtt" version="13.4.6" type="github">
  <diagram id="5GK2UG6q2wZQZG-lsS8T" name="Page-1">
    <mxGraphModel dx="1186" dy="741" grid="1" gridSize="10" guides="1" tooltips="1" connect="1" arrows="1" fold="1" page="1" pageScale="1" pageWidth="850" pageHeight="1100" math="0" shadow="0">
      <root>
        <mxCell id="0" />
        <mxCell id="1" parent="0" />
        <mxCell id="pZy6USmyNJ4X_lVglvWS-13" style="edgeStyle=orthogonalEdgeStyle;rounded=0;orthogonalLoop=1;jettySize=auto;html=1;" edge="1" parent="1" source="pZy6USmyNJ4X_lVglvWS-3" target="pZy6USmyNJ4X_lVglvWS-4">
          <mxGeometry relative="1" as="geometry">
            <mxPoint x="350" y="188" as="targetPoint" />
            <Array as="points">
              <mxPoint x="340" y="85" />
            </Array>
          </mxGeometry>
        </mxCell>
        <mxCell id="pZy6USmyNJ4X_lVglvWS-17" style="edgeStyle=orthogonalEdgeStyle;rounded=0;orthogonalLoop=1;jettySize=auto;html=1;entryX=0.75;entryY=0;entryDx=0;entryDy=0;" edge="1" parent="1" target="pZy6USmyNJ4X_lVglvWS-4">
          <mxGeometry relative="1" as="geometry">
            <mxPoint x="472.5" y="79.5" as="sourcePoint" />
            <mxPoint x="489" y="180.5" as="targetPoint" />
            <Array as="points">
              <mxPoint x="500" y="80" />
              <mxPoint x="500" y="150" />
              <mxPoint x="478" y="150" />
            </Array>
          </mxGeometry>
        </mxCell>
        <mxCell id="pZy6USmyNJ4X_lVglvWS-3" value="Sportly FE" style="rounded=1;whiteSpace=wrap;html=1;fillColor=#ffe6cc;strokeColor=#d79b00;" vertex="1" parent="1">
          <mxGeometry x="357.5" y="60" width="115" height="50" as="geometry" />
        </mxCell>
        <mxCell id="pZy6USmyNJ4X_lVglvWS-7" value="Transactional &lt;br&gt;event" style="text;html=1;strokeColor=none;fillColor=none;align=center;verticalAlign=middle;whiteSpace=wrap;rounded=0;" vertex="1" parent="1">
          <mxGeometry x="240" y="120" width="120" height="20" as="geometry" />
        </mxCell>
        <mxCell id="pZy6USmyNJ4X_lVglvWS-12" value="" style="shape=ext;rounded=1;html=1;whiteSpace=wrap;dashed=1;dashPattern=1 4;fillColor=#f5f5f5;strokeColor=#666666;fontColor=#333333;" vertex="1" parent="1">
          <mxGeometry x="260" y="210" width="370" height="210" as="geometry" />
        </mxCell>
        <mxCell id="pZy6USmyNJ4X_lVglvWS-32" value="consume message with type" style="edgeStyle=orthogonalEdgeStyle;rounded=0;orthogonalLoop=1;jettySize=auto;html=1;" edge="1" parent="1" source="pZy6USmyNJ4X_lVglvWS-4" target="2">
          <mxGeometry relative="1" as="geometry" />
        </mxCell>
        <mxCell id="pZy6USmyNJ4X_lVglvWS-4" value="Kafka Publisher" style="shape=process;whiteSpace=wrap;html=1;backgroundOutline=1;fillColor=#f8cecc;strokeColor=#b85450;" vertex="1" parent="1">
          <mxGeometry x="320" y="190" width="210" height="30" as="geometry" />
        </mxCell>
        <mxCell id="pZy6USmyNJ4X_lVglvWS-14" value="Marketing event" style="text;html=1;strokeColor=none;fillColor=none;align=center;verticalAlign=middle;whiteSpace=wrap;rounded=0;" vertex="1" parent="1">
          <mxGeometry x="490" y="120" width="120" height="20" as="geometry" />
        </mxCell>
        <mxCell id="pZy6USmyNJ4X_lVglvWS-15" style="edgeStyle=orthogonalEdgeStyle;rounded=0;orthogonalLoop=1;jettySize=auto;html=1;exitX=0.5;exitY=1;exitDx=0;exitDy=0;" edge="1" parent="1" source="pZy6USmyNJ4X_lVglvWS-14" target="pZy6USmyNJ4X_lVglvWS-14">
          <mxGeometry relative="1" as="geometry" />
        </mxCell>
        <mxCell id="pZy6USmyNJ4X_lVglvWS-18" value="Communication Service" style="text;html=1;strokeColor=none;fillColor=none;align=center;verticalAlign=middle;whiteSpace=wrap;rounded=0;" vertex="1" parent="1">
          <mxGeometry x="190" y="292.5" width="40" height="20" as="geometry" />
        </mxCell>
        <mxCell id="pZy6USmyNJ4X_lVglvWS-19" value="&lt;h1&gt;UCS Architecture&lt;/h1&gt;" style="text;html=1;strokeColor=none;fillColor=none;spacing=5;spacingTop=-20;whiteSpace=wrap;overflow=hidden;rounded=0;" vertex="1" parent="1">
          <mxGeometry x="320" y="10" width="270" height="40" as="geometry" />
        </mxCell>
        <mxCell id="pZy6USmyNJ4X_lVglvWS-36" value="publish processed message&amp;nbsp;" style="edgeStyle=orthogonalEdgeStyle;rounded=0;orthogonalLoop=1;jettySize=auto;html=1;entryX=0.5;entryY=0;entryDx=0;entryDy=0;" edge="1" parent="1" source="2" target="pZy6USmyNJ4X_lVglvWS-51">
          <mxGeometry relative="1" as="geometry">
            <mxPoint x="440.0999999999999" y="340" as="targetPoint" />
          </mxGeometry>
        </mxCell>
        <mxCell id="2" value="Process Messages" style="whiteSpace=wrap;html=1;strokeColor=#b85450;fillColor=#f8cecc;" vertex="1" parent="1">
          <mxGeometry x="357" y="282.5" width="137" height="30" as="geometry" />
        </mxCell>
        <mxCell id="pZy6USmyNJ4X_lVglvWS-21" value="DB" style="strokeWidth=2;html=1;shape=mxgraph.flowchart.database;whiteSpace=wrap;" vertex="1" parent="1">
          <mxGeometry x="720" y="237.5" width="60" height="75" as="geometry" />
        </mxCell>
        <mxCell id="pZy6USmyNJ4X_lVglvWS-34" value="Store Message/ Fetch user group" style="endArrow=classic;startArrow=classic;html=1;" edge="1" parent="1" source="2" target="pZy6USmyNJ4X_lVglvWS-21">
          <mxGeometry width="50" height="50" relative="1" as="geometry">
            <mxPoint x="498" y="275.991452991453" as="sourcePoint" />
            <mxPoint x="718" y="279" as="targetPoint" />
          </mxGeometry>
        </mxCell>
        <mxCell id="pZy6USmyNJ4X_lVglvWS-41" value="1" style="ellipse;whiteSpace=wrap;html=1;aspect=fixed;strokeWidth=2;fontFamily=Tahoma;spacingBottom=4;spacingRight=2;strokeColor=#d3d3d3;" vertex="1" parent="1">
          <mxGeometry x="340" y="140" width="20" height="20" as="geometry" />
        </mxCell>
        <mxCell id="pZy6USmyNJ4X_lVglvWS-42" value="2" style="ellipse;whiteSpace=wrap;html=1;aspect=fixed;strokeWidth=2;fontFamily=Tahoma;spacingBottom=4;spacingRight=2;strokeColor=#d3d3d3;" vertex="1" parent="1">
          <mxGeometry x="480" y="160" width="20" height="20" as="geometry" />
        </mxCell>
        <mxCell id="pZy6USmyNJ4X_lVglvWS-43" value="3" style="ellipse;whiteSpace=wrap;html=1;aspect=fixed;strokeWidth=2;fontFamily=Tahoma;spacingBottom=4;spacingRight=2;strokeColor=#d3d3d3;" vertex="1" parent="1">
          <mxGeometry x="328" y="230" width="20" height="20" as="geometry" />
        </mxCell>
        <mxCell id="pZy6USmyNJ4X_lVglvWS-44" value="4" style="ellipse;whiteSpace=wrap;html=1;aspect=fixed;strokeWidth=2;fontFamily=Tahoma;spacingBottom=4;spacingRight=2;strokeColor=#d3d3d3;" vertex="1" parent="1">
          <mxGeometry x="580" y="250" width="20" height="20" as="geometry" />
        </mxCell>
        <mxCell id="pZy6USmyNJ4X_lVglvWS-51" value="" style="strokeColor=#dddddd;shadow=1;strokeWidth=1;rounded=1;absoluteArcSize=1;arcSize=2;" vertex="1" parent="1">
          <mxGeometry x="380" y="390" width="100" height="60" as="geometry" />
        </mxCell>
        <mxCell id="pZy6USmyNJ4X_lVglvWS-52" value="&lt;font color=&quot;#000000&quot;&gt;UCS&lt;/font&gt;&lt;br&gt;Firebase" style="dashed=0;connectable=0;html=1;fillColor=#5184F3;strokeColor=none;shape=mxgraph.gcp2.firebase;part=1;labelPosition=right;verticalLabelPosition=middle;align=left;verticalAlign=middle;spacingLeft=5;fontColor=#999999;fontSize=12;" vertex="1" parent="pZy6USmyNJ4X_lVglvWS-51">
          <mxGeometry width="32.4" height="45" relative="1" as="geometry">
            <mxPoint x="5" y="7" as="offset" />
          </mxGeometry>
        </mxCell>
        <mxCell id="pZy6USmyNJ4X_lVglvWS-54" value="5" style="ellipse;whiteSpace=wrap;html=1;aspect=fixed;strokeWidth=2;fontFamily=Tahoma;spacingBottom=4;spacingRight=2;strokeColor=#d3d3d3;" vertex="1" parent="1">
          <mxGeometry x="500" y="312.5" width="20" height="20" as="geometry" />
        </mxCell>
        <mxCell id="pZy6USmyNJ4X_lVglvWS-57" value="" style="shape=mxgraph.bpmn.user_task;html=1;outlineConnect=0;" vertex="1" parent="1">
          <mxGeometry x="506" y="90" width="24" height="20" as="geometry" />
        </mxCell>
      </root>
    </mxGraphModel>
  </diagram>
</mxfile>
